HIERARCHY
ROOT Hips
{
	OFFSET 0.000000 0.000000 0.000000 
	CHANNELS 6 Xposition Yposition Zposition Yrotation Zrotation Xrotation 
	JOINT Lumbar
	{
		OFFSET 0.000000 0.000000 0.000000 
		CHANNELS 3 Zrotation Xrotation Yrotation
		JOINT Neck
		{
			OFFSET 0.000000 0.445665 0.000000 
			CHANNELS 3 Zrotation Xrotation Yrotation
			End Site
			{
				OFFSET 0.000000 0.227535 0.000000 
			}
		}
		JOINT RightShoulder
		{
			OFFSET 0.019635 0.377685 0.194865 
			CHANNELS 3 Zrotation Xrotation Yrotation
			JOINT RightElbow
			{
				OFFSET 0.000000 -0.243375 0.000000 
				CHANNELS 2 Zrotation Yrotation
				JOINT RightWrist
				{
					OFFSET 0.000000 -0.264825 0.000000 
					CHANNELS 2 Zrotation Xrotation
					End Site
					{
						OFFSET 0.006600 -0.176220 0.000990 
					}
				}
			}
		}
		JOINT LeftShoulder
		{
			OFFSET 0.019635 0.377685 -0.194865 
			CHANNELS 3 Zrotation Xrotation Yrotation
			JOINT LeftElbow
			{
				OFFSET 0.000000 -0.243375 0.000000 
				CHANNELS 2 Zrotation Yrotation
				JOINT LeftWrist
				{
					OFFSET 0.000000 -0.264825 0.000000 
					CHANNELS 2 Zrotation Xrotation
					End Site
					{
						OFFSET 0.006600 -0.176220 -0.000990 
					}
				}
			}
		}
	}
	JOINT RightHip
	{
		OFFSET 0.052140 -0.069960 0.075570 
		CHANNELS 3 Zrotation Xrotation Yrotation
		JOINT RightKnee
		{
			OFFSET 0.000000 -0.402270 0.000000 
			CHANNELS 1 Zrotation
			JOINT RightAnkle
			{
				OFFSET 0.000000 -0.404085 0.000000 
				CHANNELS 3 Zrotation Xrotation Yrotation
				End Site
				{
					OFFSET 0.204105 -0.089430 0.008415 
				}
			}
		}
	}
	JOINT LeftHip
	{
		OFFSET 0.052140 -0.069960 -0.075570 
		CHANNELS 3 Zrotation Xrotation Yrotation
		JOINT LeftKnee
		{
			OFFSET 0.000000 -0.402270 0.000000 
			CHANNELS 1 Zrotation
			JOINT LeftAnkle
			{
				OFFSET 0.000000 -0.404085 0.000000 
				CHANNELS 3 Zrotation Xrotation Yrotation
				End Site
				{
					OFFSET 0.204105 -0.089430 -0.008415 
				}
			}
		}
	}
}
MOTION
Frames: 17
Frame Time: 0.02
0 0.95578 0 193.12027 0 -4.24248 4.42558 6.08903 -0.85583 -14.76699 1.11677 -0.66991 10.90878 -9.53566 -6.00439 7.17718 79.59625 -1.77457 -0.53687 10.27841 7.66631 18.25514 6.80378 -77.42477 -2.63378 -0.99005 -1.61673 7.13368 21.88533 -6.45124 -0.38236 -3.30583 -4.10407 -1.88946 2.0969 -14.56429 -8.00743 5.96981 6.15133 9.12222
-0.00016 0.95572 -7e-05 193.20325 0 -4.23818 4.46189 6.08477 -0.88724 -14.7792 1.11496 -0.70611 11.33292 -9.76674 -5.0025 7.41873 79.63699 -1.84542 -0.71517 10.83603 7.79688 17.2383 6.9665 -77.43207 -2.68232 -0.84836 -1.65715 7.12968 21.81156 -6.40428 -0.37447 -3.3106 -4.11447 -1.87778 2.09685 -14.67149 -8.0319 5.9874 6.15769 9.1396
-0.00033 0.95566 -0.00013 193.28565 0 -4.2339 4.498 6.08054 -0.91843 -14.7912 1.11329 -0.74198 11.75556 -9.99695 -4.00663 7.65909 79.67738 -1.91599 -0.89279 11.39184 7.92647 16.22516 7.12935 -77.43959 -2.73105 -0.70663 -1.69741 7.1257 21.73826 -6.35754 -0.36661 -3.31539 -4.12476 -1.86627 2.09684 -14.77772 -8.05615 6.00491 6.16404 9.15669
-0.0005 0.95559 -0.0002 193.36591 0 -4.22969 4.53374 6.07637 -0.94869 -14.8026 1.11217 -0.77664 12.17646 -10.22589 -3.02514 7.89693 79.71673 -1.98642 -1.06944 11.94554 8.05352 15.21614 7.29426 -77.44853 -2.78091 -0.5638 -1.73726 7.12182 21.66653 -6.31137 -0.3589 -3.32027 -4.13454 -1.85547 2.09701 -14.88038 -8.07956 6.02219 6.17055 9.17263
-0.00065 0.95553 -0.00027 193.45674 0 -4.22519 4.57152 6.07187 -0.98347 -14.81733 1.10817 -0.81741 12.60678 -10.4615 -1.96752 8.14801 79.76151 -2.05795 -1.25128 12.51006 8.19413 14.18429 7.44821 -77.45053 -2.82469 -0.42733 -1.77906 7.1175 21.58699 -6.26231 -0.35053 -3.32467 -4.14679 -1.84103 2.09627 -15.00105 -8.1072 6.04061 6.17636 9.19442
-0.00083 0.95547 -0.00033 193.52567 0 -4.22126 4.60488 6.06807 -1.0089 -14.8249 1.11024 -0.84545 13.01662 -10.6828 -1.07197 8.37091 79.79486 -2.12685 -1.42193 13.0514 8.30586 13.20247 7.62524 -77.4668 -2.88135 -0.27718 -1.81684 7.11407 21.52369 -6.21932 -0.3435 -3.33009 -4.15399 -1.83422 2.0974 -15.08415 -8.12601 6.05666 6.18357 9.20397
-0.00107 0.95545 -0.00039 193.52904 0 -4.21913 4.62726 6.06631 -1.00625 -14.81306 1.1298 -0.83578 13.3799 -10.86912 -0.61608 8.51841 79.79567 -2.19216 -1.56547 13.53888 8.33867 12.3322 7.87237 -77.5279 -2.97605 -0.0867 -1.8428 7.11333 21.50814 -6.19347 -0.34065 -3.33859 -4.14506 -1.84989 2.10435 -15.0562 -8.11872 6.06603 6.19572 9.17755
-0.00133 0.95544 -0.00045 193.51112 0 -4.21754 4.64501 6.06525 -0.99452 -14.79399 1.15539 -0.81366 13.72081 -11.04036 -0.32516 8.63701 79.78514 -2.25421 -1.69718 14.00132 8.34227 11.51765 8.14153 -77.60257 -3.08341 0.11732 -1.86486 7.11347 21.50851 -6.17366 -0.33905 -3.34809 -4.13136 -1.87311 2.11308 -14.99148 -8.10276 6.07305 6.20912 9.13913
-0.00158 0.95543 -0.0005 193.50646 0 -4.21553 4.66408 6.0638 -0.98846 -14.77786 1.17779 -0.79894 14.06623 -11.21578 0.0372 8.7677 79.78047 -2.31545 -1.83202 14.46966 8.35862 10.69222 8.39729 -77.66746 -3.18345 0.31371 -1.88919 7.11304 21.49961 -6.15078 -0.33656 -3.35697 -4.12136 -1.89189 2.12053 -14.94848 -8.09201 6.08126 6.22125 9.10761
-0.00183 0.95542 -0.00056 193.48723 0 -4.21423 4.68633 6.06263 -0.97607 -14.76287 1.20208 -0.77705 14.43651 -11.40247 0.41606 8.90352 79.77284 -2.38637 -1.97632 14.96243 8.37692 9.80074 8.66892 -77.7472 -3.29002 0.51634 -1.91138 7.11326 21.49901 -6.12923 -0.33547 -3.36654 -4.10519 -1.9146 2.12985 -14.88494 -8.07625 6.08897 6.23625 9.07005
-0.00209 0.95541 -0.00061 193.49259 0 -4.21162 4.701 6.06105 -0.97448 -14.7442 1.22387 -0.7669 14.74841 -11.56206 0.71927 9.02083 79.76865 -2.43634 -2.09808 15.39664 8.38457 9.06663 8.9107 -77.79971 -3.38609 0.70913 -1.93712 7.11239 21.48524 -6.10642 -0.33173 -3.37491 -4.10037 -1.93134 2.13582 -14.85469 -8.06841 6.09715 6.24567 9.04215
-0.00233 0.95539 -0.0006 193.5769 0 -4.20496 4.6947 6.05801 -1.00705 -14.71339 1.23712 -0.79443 14.91514 -11.65116 0.86751 9.10173 79.7765 -2.42935 -2.16041 15.68893 8.36704 8.70523 9.08182 -77.77001 -3.44957 0.87186 -1.97351 7.10786 21.42845 -6.07809 -0.32066 -3.37978 -4.13126 -1.9262 2.131 -14.93174 -8.08846 6.10743 6.23855 9.04428
-0.00257 0.95536 -0.00058 193.6856 0 -4.19703 4.68118 6.05456 -1.05047 -14.67975 1.24768 -0.83384 15.02141 -11.71343 0.9395 9.16316 79.788 -2.40129 -2.20025 15.91969 8.34046 8.51513 9.21869 -77.71345 -3.5023 1.02404 -2.01368 7.10227 21.35839 -6.04838 -0.30683 -3.38341 -4.17321 -1.91546 2.12293 -15.04236 -8.1161 6.11828 6.22594 9.05644
-0.00283 0.95534 -0.00057 193.77928 0 -4.18988 4.67167 6.0514 -1.08745 -14.64996 1.25958 -0.8663 15.14914 -11.78748 1.0417 9.22899 79.79829 -2.38292 -2.25072 16.17084 8.31983 8.2707 9.36029 -77.67119 -3.56012 1.18093 -2.0521 7.09744 21.29619 -6.01972 -0.29409 -3.38753 -4.20794 -1.9096 2.11705 -15.13338 -8.13761 6.12867 6.21634 9.06373
-0.00304 0.95532 -0.00055 193.88877 0 -4.1819 4.65877 6.04783 -1.13025 -14.60941 1.2712 -0.90468 15.3037 -11.86256 1.17041 9.31425 79.8073 -2.3643 -2.29998 16.45683 8.29 7.90474 9.54941 -77.61919 -3.61693 1.33908 -2.09027 7.09145 21.22676 -5.9896 -0.28211 -3.39189 -4.25154 -1.89411 2.10823 -15.24143 -8.1699 6.13962 6.20452 9.07196
-0.00335 0.9553 -0.00053 193.97147 0 -4.17535 4.65145 6.045 -1.16393 -14.59033 1.28269 -0.93396 15.38555 -11.92956 1.211 9.35271 79.81869 -2.34082 -2.34542 16.65129 8.27808 7.86218 9.6299 -77.58264 -3.67385 1.49137 -2.13019 7.08761 21.16912 -5.96195 -0.26785 -3.39557 -4.27962 -1.89727 2.10472 -15.32249 -8.18193 6.14981 6.19612 9.08072
-0.00392 0.95528 -0.00056 193.97348 0 -4.17301 4.65977 6.04434 -1.16707 -14.6341 1.29436 -0.93288 15.30364 -11.97908 1.16618 9.28532 79.84449 -2.3135 -2.39554 16.64686 8.31366 8.41271 9.42993 -77.58038 -3.72692 1.63564 -2.17178 7.08995 21.14638 -5.94288 -0.24793 -3.39662 -4.25968 -1.95309 2.11686 -15.32063 -8.1338 6.15574 6.19747 9.08886
